# MagicaVoxel @ Ephtracy

# group
o 

# material
mtllib fire_nether_star.mtl
usemtl palette

# normals
vn -1 0 0
vn 1 0 0
vn 0 0 1
vn 0 0 -1
vn 0 -1 0
vn 0 1 0

# texcoords
vt 0.939453 0.5
vt 0.943359 0.5
vt 0.970703 0.5
vt 0.974609 0.5
vt 0.978516 0.5
vt 0.982422 0.5
vt 0.986328 0.5
vt 0.990234 0.5
vt 0.994141 0.5

# verts
v -0.7 1.8 0.9
v -0.7 1.8 0.8
v -0.7 1.9 0.9
v -0.7 1.9 0.8
v -0.6 1.7 0.9
v -0.6 1.7 0.8
v -0.6 1.8 0.9
v -0.6 1.8 0.8
v -0.6 1.9 0.9
v -0.6 1.9 0.8
v -0.6 2 0.9
v -0.6 2 0.8
v -0.5 1.6 0.9
v -0.5 1.6 0.8
v -0.5 1.7 0.9
v -0.5 1.7 0.8
v -0.5 1.8 1
v -0.5 1.8 0.9
v -0.5 1.8 0.8
v -0.5 1.8 0.7
v -0.5 1.9 0.9
v -0.5 1.9 0.8
v -0.5 2 1
v -0.5 2 0.9
v -0.5 2 0.8
v -0.5 2 0.7
v -0.5 2.1 0.9
v -0.5 2.1 0.8
v -0.3 1.4 0.9
v -0.3 1.4 0.8
v -0.3 1.6 0.9
v -0.3 1.6 0.8
v -0.3 1.7 1
v -0.3 1.7 0.9
v -0.3 1.7 0.8
v -0.3 1.7 0.7
v -0.3 1.8 1
v -0.3 1.8 0.9
v -0.3 1.8 0.8
v -0.3 1.8 0.7
v -0.3 2 1
v -0.3 2 0.9
v -0.3 2 0.8
v -0.3 2 0.7
v -0.3 2.1 0.9
v -0.3 2.1 0.8
v -0.3 2.2 1
v -0.3 2.2 0.9
v -0.3 2.2 0.8
v -0.3 2.2 0.7
v -0.3 2.3 0.9
v -0.3 2.3 0.8
v -0.2 1.3 0.9
v -0.2 1.3 0.8
v -0.2 1.4 0.9
v -0.2 1.4 0.8
v -0.2 1.5 1
v -0.2 1.5 0.9
v -0.2 1.5 0.8
v -0.2 1.5 0.7
v -0.2 1.6 1
v -0.2 1.6 0.9
v -0.2 1.6 0.8
v -0.2 1.6 0.7
v -0.2 1.7 1
v -0.2 1.7 0.9
v -0.2 1.7 0.8
v -0.2 1.7 0.7
v -0.2 2.2 1
v -0.2 2.2 0.9
v -0.2 2.2 0.8
v -0.2 2.2 0.7
v -0.2 2.3 1
v -0.2 2.3 0.9
v -0.2 2.3 0.8
v -0.2 2.3 0.7
v -0.2 2.4 0.9
v -0.2 2.4 0.8
v -0.1 1.2 0.9
v -0.1 1.2 0.8
v -0.1 1.3 0.9
v -0.1 1.3 0.8
v -0.1 1.4 1
v -0.1 1.4 0.9
v -0.1 1.4 0.8
v -0.1 1.4 0.7
v -0.1 1.5 1
v -0.1 1.5 0.9
v -0.1 1.5 0.8
v -0.1 1.5 0.7
v -0.1 2.4 0.9
v -0.1 2.4 0.8
v -0.1 2.5 0.9
v -0.1 2.5 0.8
v 5.96046e-008 1.2 0.9
v 5.96046e-008 1.2 0.8
v 5.96046e-008 1.3 0.9
v 5.96046e-008 1.3 0.8
v 5.96046e-008 1.4 1
v 5.96046e-008 1.4 0.9
v 5.96046e-008 1.4 0.8
v 5.96046e-008 1.4 0.7
v 5.96046e-008 1.5 1
v 5.96046e-008 1.5 0.9
v 5.96046e-008 1.5 0.8
v 5.96046e-008 1.5 0.7
v 5.96046e-008 1.6 1
v 5.96046e-008 1.6 0.9
v 5.96046e-008 1.6 0.8
v 5.96046e-008 1.6 0.7
v 5.96046e-008 2.1 1
v 5.96046e-008 2.1 0.9
v 5.96046e-008 2.1 0.8
v 5.96046e-008 2.1 0.7
v 5.96046e-008 2.2 1
v 5.96046e-008 2.2 0.9
v 5.96046e-008 2.2 0.8
v 5.96046e-008 2.2 0.7
v 5.96046e-008 2.3 1
v 5.96046e-008 2.3 0.9
v 5.96046e-008 2.3 0.8
v 5.96046e-008 2.3 0.7
v 5.96046e-008 2.4 0.9
v 5.96046e-008 2.4 0.8
v 5.96046e-008 2.5 0.9
v 5.96046e-008 2.5 0.8
v 0.1 1.3 0.9
v 0.1 1.3 0.8
v 0.1 1.4 0.9
v 0.1 1.4 0.8
v 0.1 1.6 1
v 0.1 1.6 0.9
v 0.1 1.6 0.8
v 0.1 1.6 0.7
v 0.1 1.7 1
v 0.1 1.7 0.9
v 0.1 1.7 0.8
v 0.1 1.7 0.7
v 0.1 2.3 0.9
v 0.1 2.3 0.8
v 0.1 2.4 0.9
v 0.1 2.4 0.8
v 0.2 1.4 0.9
v 0.2 1.4 0.8
v 0.2 1.6 0.9
v 0.2 1.6 0.8
v 0.2 1.7 1
v 0.2 1.7 0.9
v 0.2 1.7 0.8
v 0.2 1.7 0.7
v 0.2 1.8 1
v 0.2 1.8 0.9
v 0.2 1.8 0.8
v 0.2 1.8 0.7
v 0.2 1.9 1
v 0.2 1.9 0.9
v 0.2 1.9 0.8
v 0.2 1.9 0.7
v 0.2 2 0.9
v 0.2 2 0.8
v 0.2 2.1 1
v 0.2 2.1 0.9
v 0.2 2.1 0.8
v 0.2 2.1 0.7
v 0.2 2.3 0.9
v 0.2 2.3 0.8
v 0.4 1.6 0.9
v 0.4 1.6 0.8
v 0.4 1.7 0.9
v 0.4 1.7 0.8
v 0.4 1.8 1
v 0.4 1.8 0.9
v 0.4 1.8 0.8
v 0.4 1.8 0.7
v 0.4 1.9 1
v 0.4 1.9 0.9
v 0.4 1.9 0.8
v 0.4 1.9 0.7
v 0.4 2 0.9
v 0.4 2 0.8
v 0.4 2.1 0.9
v 0.4 2.1 0.8
v 0.5 1.7 0.9
v 0.5 1.7 0.8
v 0.5 1.8 0.9
v 0.5 1.8 0.8
v 0.5 1.9 0.9
v 0.5 1.9 0.8
v 0.5 2 0.9
v 0.5 2 0.8
v 0.6 1.8 0.9
v 0.6 1.8 0.8
v 0.6 1.9 0.9
v 0.6 1.9 0.8
v -0.5 1.8 1
v -0.5 2 1
v -0.4 1.8 1
v -0.4 1.9 1
v -0.3 1.7 1
v -0.3 1.8 1
v -0.3 1.9 1
v -0.3 2 1
v -0.3 2.2 1
v -0.2 1.5 1
v -0.2 1.6 1
v -0.2 1.7 1
v -0.2 1.8 1
v -0.2 1.9 1
v -0.2 2 1
v -0.2 2.1 1
v -0.2 2.2 1
v -0.2 2.3 1
v -0.1 1.4 1
v -0.1 1.5 1
v -0.1 1.6 1
v -0.1 1.7 1
v -0.1 1.8 1
v -0.1 1.9 1
v -0.1 2.1 1
v -0.1 2.2 1
v -0.1 2.3 1
v 5.96046e-008 1.4 1
v 5.96046e-008 1.5 1
v 5.96046e-008 1.6 1
v 5.96046e-008 1.7 1
v 5.96046e-008 1.8 1
v 5.96046e-008 1.9 1
v 5.96046e-008 2 1
v 5.96046e-008 2.1 1
v 5.96046e-008 2.2 1
v 5.96046e-008 2.3 1
v 0.1 1.6 1
v 0.1 1.7 1
v 0.1 1.8 1
v 0.1 1.9 1
v 0.1 2 1
v 0.2 1.7 1
v 0.2 1.8 1
v 0.2 1.9 1
v 0.2 2.1 1
v 0.3 1.8 1
v 0.3 1.9 1
v 0.4 1.8 1
v 0.4 1.9 1
v -0.7 1.8 0.9
v -0.7 1.9 0.9
v -0.6 1.7 0.9
v -0.6 1.8 0.9
v -0.6 1.9 0.9
v -0.6 2 0.9
v -0.5 1.6 0.9
v -0.5 1.7 0.9
v -0.5 1.8 0.9
v -0.5 1.9 0.9
v -0.5 2 0.9
v -0.5 2.1 0.9
v -0.4 1.8 0.9
v -0.3 1.4 0.9
v -0.3 1.6 0.9
v -0.3 1.7 0.9
v -0.3 1.8 0.9
v -0.3 2 0.9
v -0.3 2.1 0.9
v -0.3 2.2 0.9
v -0.3 2.3 0.9
v -0.2 1.3 0.9
v -0.2 1.4 0.9
v -0.2 1.5 0.9
v -0.2 1.6 0.9
v -0.2 1.7 0.9
v -0.2 2.2 0.9
v -0.2 2.3 0.9
v -0.2 2.4 0.9
v -0.1 1.2 0.9
v -0.1 1.3 0.9
v -0.1 1.4 0.9
v -0.1 1.5 0.9
v -0.1 2.3 0.9
v -0.1 2.4 0.9
v -0.1 2.5 0.9
v 5.96046e-008 1.2 0.9
v 5.96046e-008 1.3 0.9
v 5.96046e-008 1.4 0.9
v 5.96046e-008 1.5 0.9
v 5.96046e-008 1.6 0.9
v 5.96046e-008 2.1 0.9
v 5.96046e-008 2.2 0.9
v 5.96046e-008 2.3 0.9
v 5.96046e-008 2.4 0.9
v 5.96046e-008 2.5 0.9
v 0.1 1.3 0.9
v 0.1 1.4 0.9
v 0.1 1.6 0.9
v 0.1 1.7 0.9
v 0.1 2.1 0.9
v 0.1 2.3 0.9
v 0.1 2.4 0.9
v 0.2 1.4 0.9
v 0.2 1.6 0.9
v 0.2 1.7 0.9
v 0.2 1.8 0.9
v 0.2 1.9 0.9
v 0.2 2 0.9
v 0.2 2.1 0.9
v 0.2 2.3 0.9
v 0.3 1.8 0.9
v 0.3 1.9 0.9
v 0.4 1.6 0.9
v 0.4 1.7 0.9
v 0.4 1.8 0.9
v 0.4 1.9 0.9
v 0.4 2 0.9
v 0.4 2.1 0.9
v 0.5 1.7 0.9
v 0.5 1.8 0.9
v 0.5 1.9 0.9
v 0.5 2 0.9
v 0.6 1.8 0.9
v 0.6 1.9 0.9
v -0.7 1.8 0.8
v -0.7 1.9 0.8
v -0.6 1.7 0.8
v -0.6 1.8 0.8
v -0.6 1.9 0.8
v -0.6 2 0.8
v -0.5 1.6 0.8
v -0.5 1.7 0.8
v -0.5 1.8 0.8
v -0.5 1.9 0.8
v -0.5 2 0.8
v -0.5 2.1 0.8
v -0.4 1.8 0.8
v -0.3 1.4 0.8
v -0.3 1.6 0.8
v -0.3 1.7 0.8
v -0.3 1.8 0.8
v -0.3 2 0.8
v -0.3 2.1 0.8
v -0.3 2.2 0.8
v -0.3 2.3 0.8
v -0.2 1.3 0.8
v -0.2 1.4 0.8
v -0.2 1.5 0.8
v -0.2 1.6 0.8
v -0.2 1.7 0.8
v -0.2 2.2 0.8
v -0.2 2.3 0.8
v -0.2 2.4 0.8
v -0.1 1.2 0.8
v -0.1 1.3 0.8
v -0.1 1.4 0.8
v -0.1 1.5 0.8
v -0.1 2.3 0.8
v -0.1 2.4 0.8
v -0.1 2.5 0.8
v 5.96046e-008 1.2 0.8
v 5.96046e-008 1.3 0.8
v 5.96046e-008 1.4 0.8
v 5.96046e-008 1.5 0.8
v 5.96046e-008 1.6 0.8
v 5.96046e-008 2.1 0.8
v 5.96046e-008 2.2 0.8
v 5.96046e-008 2.3 0.8
v 5.96046e-008 2.4 0.8
v 5.96046e-008 2.5 0.8
v 0.1 1.3 0.8
v 0.1 1.4 0.8
v 0.1 1.6 0.8
v 0.1 1.7 0.8
v 0.1 2.1 0.8
v 0.1 2.3 0.8
v 0.1 2.4 0.8
v 0.2 1.4 0.8
v 0.2 1.6 0.8
v 0.2 1.7 0.8
v 0.2 1.8 0.8
v 0.2 1.9 0.8
v 0.2 2 0.8
v 0.2 2.1 0.8
v 0.2 2.3 0.8
v 0.3 1.8 0.8
v 0.3 1.9 0.8
v 0.4 1.6 0.8
v 0.4 1.7 0.8
v 0.4 1.8 0.8
v 0.4 1.9 0.8
v 0.4 2 0.8
v 0.4 2.1 0.8
v 0.5 1.7 0.8
v 0.5 1.8 0.8
v 0.5 1.9 0.8
v 0.5 2 0.8
v 0.6 1.8 0.8
v 0.6 1.9 0.8
v -0.5 1.8 0.7
v -0.5 2 0.7
v -0.4 1.8 0.7
v -0.4 1.9 0.7
v -0.3 1.7 0.7
v -0.3 1.8 0.7
v -0.3 1.9 0.7
v -0.3 2 0.7
v -0.3 2.2 0.7
v -0.2 1.5 0.7
v -0.2 1.6 0.7
v -0.2 1.7 0.7
v -0.2 1.8 0.7
v -0.2 1.9 0.7
v -0.2 2 0.7
v -0.2 2.1 0.7
v -0.2 2.2 0.7
v -0.2 2.3 0.7
v -0.1 1.4 0.7
v -0.1 1.5 0.7
v -0.1 1.6 0.7
v -0.1 1.7 0.7
v -0.1 1.8 0.7
v -0.1 1.9 0.7
v -0.1 2.1 0.7
v -0.1 2.2 0.7
v -0.1 2.3 0.7
v 5.96046e-008 1.4 0.7
v 5.96046e-008 1.5 0.7
v 5.96046e-008 1.6 0.7
v 5.96046e-008 1.7 0.7
v 5.96046e-008 1.8 0.7
v 5.96046e-008 1.9 0.7
v 5.96046e-008 2 0.7
v 5.96046e-008 2.1 0.7
v 5.96046e-008 2.2 0.7
v 5.96046e-008 2.3 0.7
v 0.1 1.6 0.7
v 0.1 1.7 0.7
v 0.1 1.8 0.7
v 0.1 1.9 0.7
v 0.1 2 0.7
v 0.2 1.7 0.7
v 0.2 1.8 0.7
v 0.2 1.9 0.7
v 0.2 2.1 0.7
v 0.3 1.8 0.7
v 0.3 1.9 0.7
v 0.4 1.8 0.7
v 0.4 1.9 0.7
v -0.1 1.2 0.9
v 5.96046e-008 1.2 0.9
v -0.1 1.2 0.8
v 5.96046e-008 1.2 0.8
v -0.2 1.3 0.9
v -0.1 1.3 0.9
v 5.96046e-008 1.3 0.9
v 0.1 1.3 0.9
v -0.2 1.3 0.8
v -0.1 1.3 0.8
v 5.96046e-008 1.3 0.8
v 0.1 1.3 0.8
v -0.1 1.4 1
v 5.96046e-008 1.4 1
v -0.3 1.4 0.9
v -0.2 1.4 0.9
v -0.1 1.4 0.9
v 5.96046e-008 1.4 0.9
v 0.1 1.4 0.9
v 0.2 1.4 0.9
v -0.3 1.4 0.8
v -0.2 1.4 0.8
v -0.1 1.4 0.8
v 5.96046e-008 1.4 0.8
v 0.1 1.4 0.8
v 0.2 1.4 0.8
v -0.1 1.4 0.7
v 5.96046e-008 1.4 0.7
v -0.2 1.5 1
v -0.1 1.5 1
v -0.2 1.5 0.9
v -0.1 1.5 0.9
v -0.2 1.5 0.8
v -0.1 1.5 0.8
v -0.2 1.5 0.7
v -0.1 1.5 0.7
v 5.96046e-008 1.6 1
v 0.1 1.6 1
v -0.5 1.6 0.9
v -0.3 1.6 0.9
v 5.96046e-008 1.6 0.9
v 0.1 1.6 0.9
v 0.2 1.6 0.9
v 0.4 1.6 0.9
v -0.5 1.6 0.8
v -0.3 1.6 0.8
v 5.96046e-008 1.6 0.8
v 0.1 1.6 0.8
v 0.2 1.6 0.8
v 0.4 1.6 0.8
v 5.96046e-008 1.6 0.7
v 0.1 1.6 0.7
v -0.3 1.7 1
v -0.2 1.7 1
v 0.1 1.7 1
v 0.2 1.7 1
v -0.6 1.7 0.9
v -0.5 1.7 0.9
v -0.3 1.7 0.9
v -0.2 1.7 0.9
v 0.1 1.7 0.9
v 0.2 1.7 0.9
v 0.4 1.7 0.9
v 0.5 1.7 0.9
v -0.6 1.7 0.8
v -0.5 1.7 0.8
v -0.3 1.7 0.8
v -0.2 1.7 0.8
v 0.1 1.7 0.8
v 0.2 1.7 0.8
v 0.4 1.7 0.8
v 0.5 1.7 0.8
v -0.3 1.7 0.7
v -0.2 1.7 0.7
v 0.1 1.7 0.7
v 0.2 1.7 0.7
v -0.5 1.8 1
v -0.4 1.8 1
v -0.3 1.8 1
v 0.2 1.8 1
v 0.3 1.8 1
v 0.4 1.8 1
v -0.7 1.8 0.9
v -0.6 1.8 0.9
v -0.5 1.8 0.9
v -0.4 1.8 0.9
v -0.3 1.8 0.9
v 0.2 1.8 0.9
v 0.3 1.8 0.9
v 0.4 1.8 0.9
v 0.5 1.8 0.9
v 0.6 1.8 0.9
v -0.7 1.8 0.8
v -0.6 1.8 0.8
v -0.5 1.8 0.8
v -0.4 1.8 0.8
v -0.3 1.8 0.8
v 0.2 1.8 0.8
v 0.3 1.8 0.8
v 0.4 1.8 0.8
v 0.5 1.8 0.8
v 0.6 1.8 0.8
v -0.5 1.8 0.7
v -0.4 1.8 0.7
v -0.3 1.8 0.7
v 0.2 1.8 0.7
v 0.3 1.8 0.7
v 0.4 1.8 0.7
v 0.2 1.9 1
v 0.3 1.9 1
v 0.4 1.9 1
v -0.7 1.9 0.9
v -0.6 1.9 0.9
v 0.2 1.9 0.9
v 0.3 1.9 0.9
v 0.4 1.9 0.9
v 0.5 1.9 0.9
v 0.6 1.9 0.9
v -0.7 1.9 0.8
v -0.6 1.9 0.8
v 0.2 1.9 0.8
v 0.3 1.9 0.8
v 0.4 1.9 0.8
v 0.5 1.9 0.8
v 0.6 1.9 0.8
v 0.2 1.9 0.7
v 0.3 1.9 0.7
v 0.4 1.9 0.7
v -0.5 2 1
v -0.3 2 1
v -0.6 2 0.9
v -0.5 2 0.9
v -0.3 2 0.9
v 0.4 2 0.9
v 0.5 2 0.9
v -0.6 2 0.8
v -0.5 2 0.8
v -0.3 2 0.8
v 0.4 2 0.8
v 0.5 2 0.8
v -0.5 2 0.7
v -0.3 2 0.7
v 5.96046e-008 2.1 1
v 0.2 2.1 1
v -0.5 2.1 0.9
v -0.3 2.1 0.9
v 5.96046e-008 2.1 0.9
v 0.1 2.1 0.9
v 0.2 2.1 0.9
v 0.4 2.1 0.9
v -0.5 2.1 0.8
v -0.3 2.1 0.8
v 5.96046e-008 2.1 0.8
v 0.1 2.1 0.8
v 0.2 2.1 0.8
v 0.4 2.1 0.8
v 5.96046e-008 2.1 0.7
v 0.2 2.1 0.7
v -0.3 2.2 1
v -0.2 2.2 1
v -0.3 2.2 0.9
v -0.2 2.2 0.9
v -0.3 2.2 0.8
v -0.2 2.2 0.8
v -0.3 2.2 0.7
v -0.2 2.2 0.7
v -0.2 2.3 1
v -0.1 2.3 1
v 5.96046e-008 2.3 1
v -0.3 2.3 0.9
v -0.2 2.3 0.9
v -0.1 2.3 0.9
v 5.96046e-008 2.3 0.9
v 0.1 2.3 0.9
v 0.2 2.3 0.9
v -0.3 2.3 0.8
v -0.2 2.3 0.8
v -0.1 2.3 0.8
v 5.96046e-008 2.3 0.8
v 0.1 2.3 0.8
v 0.2 2.3 0.8
v -0.2 2.3 0.7
v -0.1 2.3 0.7
v 5.96046e-008 2.3 0.7
v -0.2 2.4 0.9
v -0.1 2.4 0.9
v 5.96046e-008 2.4 0.9
v 0.1 2.4 0.9
v -0.2 2.4 0.8
v -0.1 2.4 0.8
v 5.96046e-008 2.4 0.8
v 0.1 2.4 0.8
v -0.1 2.5 0.9
v 5.96046e-008 2.5 0.9
v -0.1 2.5 0.8
v 5.96046e-008 2.5 0.8

# faces
f 3/4/1 2/4/1 1/4/1
f 4/4/1 2/4/1 3/4/1
f 7/3/1 6/3/1 5/3/1
f 8/3/1 6/3/1 7/3/1
f 11/6/1 10/6/1 9/6/1
f 12/6/1 10/6/1 11/6/1
f 15/3/1 14/3/1 13/3/1
f 16/3/1 14/3/1 15/3/1
f 21/5/1 18/5/1 17/5/1
f 22/5/1 20/5/1 19/5/1
f 23/5/1 21/5/1 17/5/1
f 24/5/1 21/5/1 23/5/1
f 25/5/1 20/5/1 22/5/1
f 26/5/1 20/5/1 25/5/1
f 27/6/1 25/6/1 24/6/1
f 28/6/1 25/6/1 27/6/1
f 31/3/1 30/3/1 29/3/1
f 32/3/1 30/3/1 31/3/1
f 37/8/1 34/8/1 33/8/1
f 38/8/1 34/8/1 37/8/1
f 39/8/1 36/8/1 35/8/1
f 40/8/1 36/8/1 39/8/1
f 45/5/1 42/5/1 41/5/1
f 46/5/1 44/5/1 43/5/1
f 47/5/1 45/5/1 41/5/1
f 47/5/1 46/5/1 45/5/1
f 48/5/1 46/5/1 47/5/1
f 49/5/1 44/5/1 46/5/1
f 49/5/1 46/5/1 48/5/1
f 50/5/1 44/5/1 49/5/1
f 51/6/1 49/6/1 48/6/1
f 52/6/1 49/6/1 51/6/1
f 55/3/1 54/3/1 53/3/1
f 56/3/1 54/3/1 55/3/1
f 61/7/1 58/7/1 57/7/1
f 62/7/1 58/7/1 61/7/1
f 63/7/1 60/7/1 59/7/1
f 64/7/1 60/7/1 63/7/1
f 65/8/1 62/8/1 61/8/1
f 66/8/1 62/8/1 65/8/1
f 67/8/1 64/8/1 63/8/1
f 68/8/1 64/8/1 67/8/1
f 73/5/1 70/5/1 69/5/1
f 74/5/1 70/5/1 73/5/1
f 75/5/1 72/5/1 71/5/1
f 76/5/1 72/5/1 75/5/1
f 77/4/1 75/4/1 74/4/1
f 78/4/1 75/4/1 77/4/1
f 81/3/1 80/3/1 79/3/1
f 82/3/1 80/3/1 81/3/1
f 87/7/1 84/7/1 83/7/1
f 88/7/1 84/7/1 87/7/1
f 89/7/1 86/7/1 85/7/1
f 90/7/1 86/7/1 89/7/1
f 93/3/1 92/3/1 91/3/1
f 94/3/1 92/3/1 93/3/1
f 95/3/2 96/3/2 97/3/2
f 97/3/2 96/3/2 98/3/2
f 99/7/2 100/7/2 103/7/2
f 103/7/2 100/7/2 104/7/2
f 101/7/2 102/7/2 105/7/2
f 105/7/2 102/7/2 106/7/2
f 103/1/2 104/1/2 107/1/2
f 107/1/2 104/1/2 108/1/2
f 105/1/2 106/1/2 109/1/2
f 109/1/2 106/1/2 110/1/2
f 111/1/2 112/1/2 115/1/2
f 115/1/2 112/1/2 116/1/2
f 113/1/2 114/1/2 117/1/2
f 117/1/2 114/1/2 118/1/2
f 115/7/2 116/7/2 119/7/2
f 119/7/2 116/7/2 120/7/2
f 117/7/2 118/7/2 121/7/2
f 121/7/2 118/7/2 122/7/2
f 123/3/2 124/3/2 125/3/2
f 125/3/2 124/3/2 126/3/2
f 127/3/2 128/3/2 129/3/2
f 129/3/2 128/3/2 130/3/2
f 131/7/2 132/7/2 135/7/2
f 135/7/2 132/7/2 136/7/2
f 133/7/2 134/7/2 137/7/2
f 137/7/2 134/7/2 138/7/2
f 139/3/2 140/3/2 141/3/2
f 141/3/2 140/3/2 142/3/2
f 143/3/2 144/3/2 145/3/2
f 145/3/2 144/3/2 146/3/2
f 147/7/2 148/7/2 151/7/2
f 151/7/2 148/7/2 152/7/2
f 149/7/2 150/7/2 153/7/2
f 153/7/2 150/7/2 154/7/2
f 155/7/2 156/7/2 159/7/2
f 157/7/2 158/7/2 160/7/2
f 155/7/2 159/7/2 161/7/2
f 161/7/2 159/7/2 162/7/2
f 160/7/2 158/7/2 163/7/2
f 163/7/2 158/7/2 164/7/2
f 162/3/2 163/3/2 165/3/2
f 165/3/2 163/3/2 166/3/2
f 167/3/2 168/3/2 169/3/2
f 169/3/2 168/3/2 170/3/2
f 171/7/2 172/7/2 175/7/2
f 175/7/2 172/7/2 176/7/2
f 173/7/2 174/7/2 177/7/2
f 177/7/2 174/7/2 178/7/2
f 179/3/2 180/3/2 181/3/2
f 181/3/2 180/3/2 182/3/2
f 183/3/2 184/3/2 185/3/2
f 185/3/2 184/3/2 186/3/2
f 187/3/2 188/3/2 189/3/2
f 189/3/2 188/3/2 190/3/2
f 191/3/2 192/3/2 193/3/2
f 193/3/2 192/3/2 194/3/2
f 197/5/3 196/5/3 195/5/3
f 198/5/3 196/5/3 197/5/3
f 200/1/3 198/1/3 197/1/3
f 201/5/3 196/5/3 198/5/3
f 201/1/3 198/1/3 200/1/3
f 202/5/3 196/5/3 201/5/3
f 206/8/3 200/8/3 199/8/3
f 207/1/3 201/1/3 200/1/3
f 207/8/3 200/8/3 206/8/3
f 208/9/3 202/9/3 201/9/3
f 208/1/3 201/1/3 207/1/3
f 209/5/3 203/5/3 202/5/3
f 209/9/3 202/9/3 208/9/3
f 210/5/3 203/5/3 209/5/3
f 211/5/3 203/5/3 210/5/3
f 214/7/3 205/7/3 204/7/3
f 215/8/3 206/8/3 205/8/3
f 215/7/3 205/7/3 214/7/3
f 216/9/3 207/9/3 206/9/3
f 216/8/3 206/8/3 215/8/3
f 217/1/3 208/1/3 207/1/3
f 217/9/3 207/9/3 216/9/3
f 218/7/3 209/7/3 208/7/3
f 218/1/3 208/1/3 217/1/3
f 218/7/3 210/7/3 209/7/3
f 219/5/3 212/5/3 211/5/3
f 219/7/3 210/7/3 218/7/3
f 219/5/3 211/5/3 210/5/3
f 220/5/3 212/5/3 219/5/3
f 221/5/3 212/5/3 220/5/3
f 222/7/3 214/7/3 213/7/3
f 223/1/3 215/1/3 214/1/3
f 223/7/3 214/7/3 222/7/3
f 223/1/3 216/1/3 215/1/3
f 224/1/3 216/1/3 223/1/3
f 225/2/3 217/2/3 216/2/3
f 225/1/3 216/1/3 224/1/3
f 226/9/3 218/9/3 217/9/3
f 226/2/3 217/2/3 225/2/3
f 227/1/3 219/1/3 218/1/3
f 227/9/3 218/9/3 226/9/3
f 227/1/3 220/1/3 219/1/3
f 228/1/3 220/1/3 227/1/3
f 229/1/3 220/1/3 228/1/3
f 230/7/3 221/7/3 220/7/3
f 230/1/3 220/1/3 229/1/3
f 231/7/3 221/7/3 230/7/3
f 232/7/3 225/7/3 224/7/3
f 232/7/3 226/7/3 225/7/3
f 233/7/3 226/7/3 232/7/3
f 234/2/3 227/2/3 226/2/3
f 234/7/3 226/7/3 233/7/3
f 235/8/3 228/8/3 227/8/3
f 235/2/3 227/2/3 234/2/3
f 236/7/3 229/7/3 228/7/3
f 236/8/3 228/8/3 235/8/3
f 237/7/3 234/7/3 233/7/3
f 238/1/3 235/1/3 234/1/3
f 238/7/3 234/7/3 237/7/3
f 239/7/3 236/7/3 235/7/3
f 239/1/3 235/1/3 238/1/3
f 240/7/3 229/7/3 236/7/3
f 240/7/3 236/7/3 239/7/3
f 241/1/3 239/1/3 238/1/3
f 242/1/3 239/1/3 241/1/3
f 243/7/3 242/7/3 241/7/3
f 244/7/3 242/7/3 243/7/3
f 248/4/3 246/4/3 245/4/3
f 249/4/3 246/4/3 248/4/3
f 252/3/3 248/3/3 247/3/3
f 253/4/3 249/4/3 248/4/3
f 253/3/3 248/3/3 252/3/3
f 254/6/3 250/6/3 249/6/3
f 254/4/3 249/4/3 253/4/3
f 255/6/3 250/6/3 254/6/3
f 257/4/3 253/4/3 252/4/3
f 259/3/3 252/3/3 251/3/3
f 260/4/3 257/4/3 252/4/3
f 260/3/3 252/3/3 259/3/3
f 261/4/3 257/4/3 260/4/3
f 262/6/3 256/6/3 255/6/3
f 263/6/3 256/6/3 262/6/3
f 267/3/3 259/3/3 258/3/3
f 268/3/3 259/3/3 267/3/3
f 269/4/3 260/4/3 259/4/3
f 269/3/3 259/3/3 268/3/3
f 270/4/3 260/4/3 269/4/3
f 271/6/3 265/6/3 264/6/3
f 272/6/3 265/6/3 271/6/3
f 275/3/3 267/3/3 266/3/3
f 276/4/3 268/4/3 267/4/3
f 276/3/3 267/3/3 275/3/3
f 277/4/3 268/4/3 276/4/3
f 278/4/3 273/4/3 272/4/3
f 279/4/3 273/4/3 278/4/3
f 281/3/3 275/3/3 274/3/3
f 282/4/3 276/4/3 275/4/3
f 282/3/3 275/3/3 281/3/3
f 283/4/3 276/4/3 282/4/3
f 288/4/3 279/4/3 278/4/3
f 289/3/3 280/3/3 279/3/3
f 289/4/3 279/4/3 288/4/3
f 290/3/3 280/3/3 289/3/3
f 291/3/3 283/3/3 282/3/3
f 292/4/3 284/4/3 283/4/3
f 292/3/3 283/3/3 291/3/3
f 292/4/3 285/4/3 284/4/3
f 293/4/3 285/4/3 292/4/3
f 295/4/3 288/4/3 287/4/3
f 295/4/3 287/4/3 286/4/3
f 296/3/3 289/3/3 288/3/3
f 296/4/3 288/4/3 295/4/3
f 297/3/3 289/3/3 296/3/3
f 298/3/3 293/3/3 292/3/3
f 299/4/3 294/4/3 293/4/3
f 299/3/3 293/3/3 298/3/3
f 300/4/3 294/4/3 299/4/3
f 304/3/3 296/3/3 295/3/3
f 305/3/3 296/3/3 304/3/3
f 306/4/3 301/4/3 300/4/3
f 307/4/3 303/4/3 302/4/3
f 308/3/3 300/3/3 299/3/3
f 309/4/3 306/4/3 300/4/3
f 309/3/3 300/3/3 308/3/3
f 310/4/3 306/4/3 309/4/3
f 311/4/3 303/4/3 307/4/3
f 312/3/3 304/3/3 303/3/3
f 312/4/3 303/4/3 311/4/3
f 313/3/3 304/3/3 312/3/3
f 314/3/3 310/3/3 309/3/3
f 315/4/3 311/4/3 310/4/3
f 315/3/3 310/3/3 314/3/3
f 316/3/3 312/3/3 311/3/3
f 316/4/3 311/4/3 315/4/3
f 317/3/3 312/3/3 316/3/3
f 318/3/3 316/3/3 315/3/3
f 319/3/3 316/3/3 318/3/3
f 320/4/4 321/4/4 323/4/4
f 323/4/4 321/4/4 324/4/4
f 322/3/4 323/3/4 327/3/4
f 323/4/4 324/4/4 328/4/4
f 327/3/4 323/3/4 328/3/4
f 324/6/4 325/6/4 329/6/4
f 328/4/4 324/4/4 329/4/4
f 329/6/4 325/6/4 330/6/4
f 327/4/4 328/4/4 332/4/4
f 326/3/4 327/3/4 334/3/4
f 327/4/4 332/4/4 335/4/4
f 334/3/4 327/3/4 335/3/4
f 335/4/4 332/4/4 336/4/4
f 330/6/4 331/6/4 337/6/4
f 337/6/4 331/6/4 338/6/4
f 333/3/4 334/3/4 342/3/4
f 342/3/4 334/3/4 343/3/4
f 334/4/4 335/4/4 344/4/4
f 343/3/4 334/3/4 344/3/4
f 344/4/4 335/4/4 345/4/4
f 339/6/4 340/6/4 346/6/4
f 346/6/4 340/6/4 347/6/4
f 341/3/4 342/3/4 350/3/4
f 342/4/4 343/4/4 351/4/4
f 350/3/4 342/3/4 351/3/4
f 351/4/4 343/4/4 352/4/4
f 347/4/4 348/4/4 353/4/4
f 353/4/4 348/4/4 354/4/4
f 349/3/4 350/3/4 356/3/4
f 350/4/4 351/4/4 357/4/4
f 356/3/4 350/3/4 357/3/4
f 357/4/4 351/4/4 358/4/4
f 353/4/4 354/4/4 363/4/4
f 354/3/4 355/3/4 364/3/4
f 363/4/4 354/4/4 364/4/4
f 364/3/4 355/3/4 365/3/4
f 357/3/4 358/3/4 366/3/4
f 358/4/4 359/4/4 367/4/4
f 366/3/4 358/3/4 367/3/4
f 359/4/4 360/4/4 367/4/4
f 367/4/4 360/4/4 368/4/4
f 362/4/4 363/4/4 370/4/4
f 361/4/4 362/4/4 370/4/4
f 363/3/4 364/3/4 371/3/4
f 370/4/4 363/4/4 371/4/4
f 371/3/4 364/3/4 372/3/4
f 367/3/4 368/3/4 373/3/4
f 368/4/4 369/4/4 374/4/4
f 373/3/4 368/3/4 374/3/4
f 374/4/4 369/4/4 375/4/4
f 370/3/4 371/3/4 379/3/4
f 379/3/4 371/3/4 380/3/4
f 375/4/4 376/4/4 381/4/4
f 377/4/4 378/4/4 382/4/4
f 374/3/4 375/3/4 383/3/4
f 375/4/4 381/4/4 384/4/4
f 383/3/4 375/3/4 384/3/4
f 384/4/4 381/4/4 385/4/4
f 382/4/4 378/4/4 386/4/4
f 378/3/4 379/3/4 387/3/4
f 386/4/4 378/4/4 387/4/4
f 387/3/4 379/3/4 388/3/4
f 384/3/4 385/3/4 389/3/4
f 385/4/4 386/4/4 390/4/4
f 389/3/4 385/3/4 390/3/4
f 386/3/4 387/3/4 391/3/4
f 390/4/4 386/4/4 391/4/4
f 391/3/4 387/3/4 392/3/4
f 390/3/4 391/3/4 393/3/4
f 393/3/4 391/3/4 394/3/4
f 395/5/4 396/5/4 397/5/4
f 397/5/4 396/5/4 398/5/4
f 397/1/4 398/1/4 400/1/4
f 398/5/4 396/5/4 401/5/4
f 400/1/4 398/1/4 401/1/4
f 401/5/4 396/5/4 402/5/4
f 399/8/4 400/8/4 406/8/4
f 400/1/4 401/1/4 407/1/4
f 406/8/4 400/8/4 407/8/4
f 401/9/4 402/9/4 408/9/4
f 407/1/4 401/1/4 408/1/4
f 402/5/4 403/5/4 409/5/4
f 408/9/4 402/9/4 409/9/4
f 409/5/4 403/5/4 410/5/4
f 410/5/4 403/5/4 411/5/4
f 404/7/4 405/7/4 414/7/4
f 405/8/4 406/8/4 415/8/4
f 414/7/4 405/7/4 415/7/4
f 406/9/4 407/9/4 416/9/4
f 415/8/4 406/8/4 416/8/4
f 407/1/4 408/1/4 417/1/4
f 416/9/4 407/9/4 417/9/4
f 408/7/4 409/7/4 418/7/4
f 417/1/4 408/1/4 418/1/4
f 409/7/4 410/7/4 418/7/4
f 411/5/4 412/5/4 419/5/4
f 418/7/4 410/7/4 419/7/4
f 410/5/4 411/5/4 419/5/4
f 419/5/4 412/5/4 420/5/4
f 420/5/4 412/5/4 421/5/4
f 413/7/4 414/7/4 422/7/4
f 414/1/4 415/1/4 423/1/4
f 422/7/4 414/7/4 423/7/4
f 415/1/4 416/1/4 423/1/4
f 423/1/4 416/1/4 424/1/4
f 416/2/4 417/2/4 425/2/4
f 424/1/4 416/1/4 425/1/4
f 417/9/4 418/9/4 426/9/4
f 425/2/4 417/2/4 426/2/4
f 418/1/4 419/1/4 427/1/4
f 426/9/4 418/9/4 427/9/4
f 419/1/4 420/1/4 427/1/4
f 427/1/4 420/1/4 428/1/4
f 428/1/4 420/1/4 429/1/4
f 420/7/4 421/7/4 430/7/4
f 429/1/4 420/1/4 430/1/4
f 430/7/4 421/7/4 431/7/4
f 424/7/4 425/7/4 432/7/4
f 425/7/4 426/7/4 432/7/4
f 432/7/4 426/7/4 433/7/4
f 426/2/4 427/2/4 434/2/4
f 433/7/4 426/7/4 434/7/4
f 427/8/4 428/8/4 435/8/4
f 434/2/4 427/2/4 435/2/4
f 428/7/4 429/7/4 436/7/4
f 435/8/4 428/8/4 436/8/4
f 433/7/4 434/7/4 437/7/4
f 434/1/4 435/1/4 438/1/4
f 437/7/4 434/7/4 438/7/4
f 435/7/4 436/7/4 439/7/4
f 438/1/4 435/1/4 439/1/4
f 436/7/4 429/7/4 440/7/4
f 439/7/4 436/7/4 440/7/4
f 438/1/4 439/1/4 441/1/4
f 441/1/4 439/1/4 442/1/4
f 441/7/4 442/7/4 443/7/4
f 443/7/4 442/7/4 444/7/4
f 447/3/5 446/3/5 445/3/5
f 448/3/5 446/3/5 447/3/5
f 453/3/5 450/3/5 449/3/5
f 454/3/5 450/3/5 453/3/5
f 455/3/5 452/3/5 451/3/5
f 456/3/5 452/3/5 455/3/5
f 461/7/5 458/7/5 457/7/5
f 462/7/5 458/7/5 461/7/5
f 465/3/5 460/3/5 459/3/5
f 466/3/5 460/3/5 465/3/5
f 469/3/5 464/3/5 463/3/5
f 470/3/5 464/3/5 469/3/5
f 471/7/5 468/7/5 467/7/5
f 472/7/5 468/7/5 471/7/5
f 475/7/5 474/7/5 473/7/5
f 476/7/5 474/7/5 475/7/5
f 479/7/5 478/7/5 477/7/5
f 480/7/5 478/7/5 479/7/5
f 485/7/5 482/7/5 481/7/5
f 486/7/5 482/7/5 485/7/5
f 489/3/5 484/3/5 483/3/5
f 490/3/5 484/3/5 489/3/5
f 493/3/5 488/3/5 487/3/5
f 494/3/5 488/3/5 493/3/5
f 495/7/5 492/7/5 491/7/5
f 496/7/5 492/7/5 495/7/5
f 503/8/5 498/8/5 497/8/5
f 504/8/5 498/8/5 503/8/5
f 505/7/5 500/7/5 499/7/5
f 506/7/5 500/7/5 505/7/5
f 509/3/5 502/3/5 501/3/5
f 510/3/5 502/3/5 509/3/5
f 515/3/5 508/3/5 507/3/5
f 516/3/5 508/3/5 515/3/5
f 517/8/5 512/8/5 511/8/5
f 518/8/5 512/8/5 517/8/5
f 519/7/5 514/7/5 513/7/5
f 520/7/5 514/7/5 519/7/5
f 529/5/5 522/5/5 521/5/5
f 530/1/5 523/1/5 522/1/5
f 530/5/5 522/5/5 529/5/5
f 531/1/5 523/1/5 530/1/5
f 532/1/5 525/1/5 524/1/5
f 533/7/5 526/7/5 525/7/5
f 533/1/5 525/1/5 532/1/5
f 534/7/5 526/7/5 533/7/5
f 537/4/5 528/4/5 527/4/5
f 538/4/5 528/4/5 537/4/5
f 545/3/5 536/3/5 535/3/5
f 546/3/5 536/3/5 545/3/5
f 547/5/5 540/5/5 539/5/5
f 548/1/5 541/1/5 540/1/5
f 548/5/5 540/5/5 547/5/5
f 549/1/5 541/1/5 548/1/5
f 550/1/5 543/1/5 542/1/5
f 551/7/5 544/7/5 543/7/5
f 551/1/5 543/1/5 550/1/5
f 552/7/5 544/7/5 551/7/5
f 553/1/6 554/1/6 558/1/6
f 554/7/6 555/7/6 559/7/6
f 558/1/6 554/1/6 559/1/6
f 559/7/6 555/7/6 560/7/6
f 556/4/6 557/4/6 563/4/6
f 563/4/6 557/4/6 564/4/6
f 561/3/6 562/3/6 568/3/6
f 568/3/6 562/3/6 569/3/6
f 565/1/6 566/1/6 570/1/6
f 566/7/6 567/7/6 571/7/6
f 570/1/6 566/1/6 571/1/6
f 571/7/6 567/7/6 572/7/6
f 573/5/6 574/5/6 576/5/6
f 576/5/6 574/5/6 577/5/6
f 575/6/6 576/6/6 580/6/6
f 580/6/6 576/6/6 581/6/6
f 578/3/6 579/3/6 583/3/6
f 583/3/6 579/3/6 584/3/6
f 581/5/6 582/5/6 585/5/6
f 585/5/6 582/5/6 586/5/6
f 587/7/6 588/7/6 591/7/6
f 591/7/6 588/7/6 592/7/6
f 592/7/6 588/7/6 593/7/6
f 589/6/6 590/6/6 595/6/6
f 595/6/6 590/6/6 596/6/6
f 593/3/6 594/3/6 599/3/6
f 599/3/6 594/3/6 600/3/6
f 597/7/6 598/7/6 601/7/6
f 598/7/6 599/7/6 601/7/6
f 601/7/6 599/7/6 602/7/6
f 603/5/6 604/5/6 605/5/6
f 605/5/6 604/5/6 606/5/6
f 607/5/6 608/5/6 609/5/6
f 609/5/6 608/5/6 610/5/6
f 611/5/6 612/5/6 615/5/6
f 612/7/6 613/7/6 616/7/6
f 615/5/6 612/5/6 616/5/6
f 616/7/6 613/7/6 617/7/6
f 614/6/6 615/6/6 620/6/6
f 620/6/6 615/6/6 621/6/6
f 618/3/6 619/3/6 624/3/6
f 624/3/6 619/3/6 625/3/6
f 621/5/6 622/5/6 626/5/6
f 622/7/6 623/7/6 627/7/6
f 626/5/6 622/5/6 627/5/6
f 627/7/6 623/7/6 628/7/6
f 629/4/6 630/4/6 633/4/6
f 633/4/6 630/4/6 634/4/6
f 631/3/6 632/3/6 635/3/6
f 635/3/6 632/3/6 636/3/6
f 637/3/6 638/3/6 639/3/6
f 639/3/6 638/3/6 640/3/6
